<svg xmlns="http://www.w3.org/2000/svg" viewBox="0 0 24 24" fill="none"
     stroke="currentColor" stroke-width="1.5" stroke-linecap="round" stroke-linejoin="round">
  <!-- X-ray film border -->
  <rect x="3" y="1.5" width="18" height="21" rx="1.5"/>

  <!-- Spine (center line) -->
  <line x1="12" y1="5" x2="12" y2="19"/>

  <!-- Ribs — left -->
  <path d="M12 7.5 C10.5 7.2 9 8 8 9.5"/>
  <path d="M12 10.5 C10 10.2 8.5 11.2 7.5 13"/>
  <path d="M12 13.5 C10 13.2 8.5 14.2 7.5 16"/>

  <!-- Ribs — right -->
  <path d="M12 7.5 C13.5 7.2 15 8 16 9.5"/>
  <path d="M12 10.5 C14 10.2 15.5 11.2 16.5 13"/>
  <path d="M12 13.5 C14 13.2 15.5 14.2 16.5 16"/>

  <!-- Pelvis arc -->
  <path d="M8.5 18 Q12 20 15.5 18"/>
</svg>
